<svg width="30" height="30" viewBox="0 0 30 30" fill="none" xmlns="http://www.w3.org/2000/svg">
<path d="M25.9854 27.784C22.9454 30.8241 15.1599 27.9675 8.5962 21.4038C2.03246 14.8401 -0.824059 7.05465 2.21598 4.01459L4.21762 2.01295C5.59946 0.631109 7.8764 0.667636 9.3033 2.09454L12.4037 5.1949C13.8306 6.6218 13.8671 8.89874 12.4852 10.2806L12.0553 10.7105C11.3092 11.4566 11.2363 12.6602 11.9295 13.5002C12.5982 14.3106 13.3191 15.1177 14.1007 15.8993C14.8823 16.6809 15.6894 17.4018 16.4998 18.0705C17.3398 18.7638 18.5434 18.6908 19.2895 17.9447L19.7194 17.5148C21.1013 16.1329 23.3782 16.1694 24.8051 17.5963L27.9055 20.6967C29.3324 22.1236 29.3689 24.4005 27.987 25.7824L25.9854 27.784Z" stroke="#0044AB" stroke-width="1.5"/>
</svg>
