<svg width="30" height="31" viewBox="0 0 30 31" fill="none" xmlns="http://www.w3.org/2000/svg">
<path d="M25.9854 28.4422C22.9454 31.4823 15.1599 28.6257 8.5962 22.062C2.03246 15.4983 -0.824059 7.71285 2.21598 4.67279L4.21762 2.67115C5.59946 1.28931 7.8764 1.32584 9.3033 2.75274L12.4037 5.8531C13.8306 7.28 13.8671 9.55694 12.4852 10.9388L12.0553 11.3687C11.3092 12.1148 11.2363 13.3184 11.9295 14.1584C12.5982 14.9688 13.3191 15.7759 14.1007 16.5575C14.8823 17.3391 15.6894 18.06 16.4998 18.7287C17.3398 19.422 18.5434 19.349 19.2895 18.6029L19.7194 18.173C21.1013 16.7911 23.3782 16.8276 24.8051 18.2545L27.9055 21.3549C29.3324 22.7818 29.3689 25.0587 27.987 26.4406L25.9854 28.4422Z" stroke="white" stroke-width="1.5"/>
</svg>
