<svg width="28" height="28" viewBox="0 0 28 28" fill="none" xmlns="http://www.w3.org/2000/svg">
<path id="Icon" fill-rule="evenodd" clip-rule="evenodd" d="M25.606 7.00067L17.822 1.24667C15.5451 -0.415558 12.4549 -0.415558 10.178 1.24667L2.408 7.00067C0.903619 8.08446 0.0085447 9.82257 0 11.6767V22.0787C0.0840343 25.4292 2.86531 28.079 6.216 28.0007H21.784C25.1347 28.079 27.916 25.4292 28 22.0787V11.6627C27.988 9.81658 27.0994 8.08607 25.606 7.00067ZM25.9 22.0787C25.8165 24.2697 23.9751 25.9795 21.784 25.9007H6.216C4.02777 25.9717 2.19103 24.2662 2.1 22.0787V11.6767C2.10747 10.4866 2.68544 9.3723 3.654 8.6807L11.424 2.9407C12.9585 1.82011 15.0415 1.82011 16.576 2.9407L24.346 8.6947C25.3137 9.37429 25.8928 10.4802 25.9 11.6627V22.0787ZM7.7 19.2507H20.3C20.8799 19.2507 21.35 19.7208 21.35 20.3007C21.35 20.8806 20.8799 21.3507 20.3 21.3507H7.7C7.1201 21.3507 6.65 20.8806 6.65 20.3007C6.65 19.7208 7.1201 19.2507 7.7 19.2507Z" fill="#0044AB"/>
</svg>
