<svg width="28" height="28" viewBox="0 0 28 28" fill="none" xmlns="http://www.w3.org/2000/svg">
<path fill-rule="evenodd" clip-rule="evenodd" d="M7.48837 14C7.48837 10.4037 10.4037 7.48837 14 7.48837C15.727 7.48837 17.3832 8.17442 18.6044 9.39558C19.8256 10.6168 20.5116 12.273 20.5116 14C20.5116 17.5963 17.5963 20.5116 14 20.5116C10.4037 20.5116 7.48837 17.5963 7.48837 14ZM9.78883 15.7443C10.4943 17.4476 12.1564 18.5581 14 18.5581C16.5174 18.5581 18.5581 16.5174 18.5581 14C18.5581 12.1564 17.4476 10.4943 15.7443 9.78883C14.0411 9.08332 12.0805 9.47329 10.7769 10.7769C9.47329 12.0805 9.08331 14.0411 9.78883 15.7443Z" fill="#0044AB"/>
<path d="M14 5.86047C14.5365 5.85345 14.9697 5.42023 14.9767 4.88372V0.976744C14.9767 0.437303 14.5394 0 14 0C13.4606 0 13.0233 0.437303 13.0233 0.976744V4.88372C13.0303 5.42023 13.4635 5.85345 14 5.86047Z" fill="#0044AB"/>
<path d="M14 22.1395C13.4635 22.1465 13.0303 22.5798 13.0233 23.1163V27.0233C13.0233 27.5627 13.4606 28 14 28C14.5394 28 14.9767 27.5627 14.9767 27.0233V23.1163C14.9697 22.5798 14.5365 22.1465 14 22.1395Z" fill="#0044AB"/>
<path d="M6.86326 8.24372C7.2446 8.62459 7.86238 8.62459 8.24372 8.24372C8.62459 7.86238 8.62459 7.2446 8.24372 6.86326L5.48279 4.10233C5.23929 3.84101 4.87258 3.73344 4.52651 3.82182C4.18044 3.9102 3.9102 4.18044 3.82182 4.52651C3.73344 4.87258 3.84101 5.23929 4.10233 5.48279L6.86326 8.24372Z" fill="#0044AB"/>
<path d="M21.1367 19.7563C20.7519 19.3977 20.1522 19.4083 19.7802 19.7802C19.4083 20.1522 19.3977 20.7519 19.7563 21.1367L22.5172 23.8977C22.6994 24.0821 22.9482 24.1854 23.2074 24.1842C23.467 24.1869 23.7164 24.0834 23.8977 23.8977C24.2785 23.5163 24.2785 22.8986 23.8977 22.5172L21.1367 19.7563Z" fill="#0044AB"/>
<path d="M5.86047 14C5.85345 13.4635 5.42023 13.0303 4.88372 13.0233H0.976744C0.437303 13.0233 0 13.4606 0 14C0 14.5394 0.437303 14.9767 0.976744 14.9767H4.88372C5.42023 14.9697 5.85345 14.5365 5.86047 14Z" fill="#0044AB"/>
<path d="M27.0233 13.0233H23.1163C22.5768 13.0233 22.1395 13.4606 22.1395 14C22.1395 14.5394 22.5768 14.9767 23.1163 14.9767H27.0233C27.5627 14.9767 28 14.5394 28 14C28 13.4606 27.5627 13.0233 27.0233 13.0233Z" fill="#0044AB"/>
<path d="M6.86325 19.7563L4.10232 22.5172C3.72145 22.8986 3.72145 23.5163 4.10232 23.8977C4.28364 24.0834 4.53301 24.1869 4.79256 24.1842C5.05181 24.1854 5.30061 24.0821 5.48279 23.8977L8.24372 21.1367C8.60233 20.7519 8.59175 20.1522 8.21979 19.7802C7.84783 19.4083 7.2481 19.3977 6.86325 19.7563Z" fill="#0044AB"/>
<path d="M20.5116 8.53023C20.7709 8.53146 21.0197 8.42818 21.2019 8.24372L23.8977 5.48279C24.159 5.23929 24.2666 4.87258 24.1782 4.52651C24.0898 4.18044 23.8196 3.9102 23.4735 3.82182C23.1274 3.73344 22.7607 3.84101 22.5172 4.10233L19.7563 6.86326C19.3754 7.2446 19.3754 7.86238 19.7563 8.24372C19.954 8.44524 20.23 8.54996 20.5116 8.53023Z" fill="#0044AB"/>
</svg>
