<svg width="29" height="29" viewBox="0 0 29 29" fill="none" xmlns="http://www.w3.org/2000/svg">
<path fill-rule="evenodd" clip-rule="evenodd" d="M0.76001 14.7598C0.76001 7.02791 7.02799 0.75993 14.7599 0.75993C15.7886 0.754763 16.8142 0.871313 17.8155 1.10715C13.8528 2.24174 11.2593 6.03679 11.6419 10.1409C12.0245 14.245 15.2747 17.4953 19.3789 17.8779C23.483 18.2605 27.278 15.667 28.4126 11.7043C28.6485 12.7056 28.765 13.7312 28.7598 14.7598C28.7598 22.4918 22.4919 28.7598 14.7599 28.7598C7.02799 28.7598 0.76001 22.4918 0.76001 14.7598ZM12.6252 16.8934C8.99328 13.265 8.46602 7.56223 11.3711 3.32936C5.90322 4.95331 2.35289 10.2242 2.90273 15.9015C3.45256 21.5788 7.94838 26.0704 13.6262 26.615C19.3041 27.1595 24.5716 23.6042 26.1904 18.1348C21.9603 21.0438 16.257 20.5219 12.6252 16.8934Z" fill="white"/>
</svg>
