<svg width="27" height="28" viewBox="0 0 27 28" fill="none" xmlns="http://www.w3.org/2000/svg">
<path fill-rule="evenodd" clip-rule="evenodd" d="M3.375 0H23.625C25.489 0 27 1.47483 27 3.29412V8.23529C27 10.0546 25.489 11.5294 23.625 11.5294H3.375C1.51104 11.5294 0 10.0546 0 8.23529V3.29412C0 1.47483 1.51104 0 3.375 0ZM23.625 9.05882C24.091 9.05882 24.4688 8.69012 24.4688 8.23529V3.29412C24.4688 2.83929 24.091 2.47059 23.625 2.47059H3.375C2.90901 2.47059 2.53125 2.83929 2.53125 3.29412V8.23529C2.53125 8.69012 2.90901 9.05882 3.375 9.05882H23.625Z" fill="white"/>
<path fill-rule="evenodd" clip-rule="evenodd" d="M3.375 16.4706H23.625C25.489 16.4706 27 17.9454 27 19.7647V24.7059C27 26.5252 25.489 28 23.625 28H3.375C1.51104 28 0 26.5252 0 24.7059V19.7647C0 17.9454 1.51104 16.4706 3.375 16.4706ZM23.625 25.5294C24.091 25.5294 24.4688 25.1607 24.4688 24.7059V19.7647C24.4688 19.3099 24.091 18.9412 23.625 18.9412H3.375C2.90901 18.9412 2.53125 19.3099 2.53125 19.7647V24.7059C2.53125 25.1607 2.90901 25.5294 3.375 25.5294H23.625Z" fill="white"/>
</svg>
