<svg width="18" height="26" viewBox="0 0 18 26" fill="none" xmlns="http://www.w3.org/2000/svg">
<path d="M12.9995 24.2092C10.2001 25.4717 5.72099 21.5953 2.99519 15.5512C0.269384 9.507 0.329048 3.58379 3.12845 2.32131L4.97164 1.49006C6.2441 0.91621 7.756 1.51618 8.34856 2.83013L9.63609 5.68507C10.2287 6.99902 9.67749 8.52939 8.40504 9.10324L8.00914 9.28178C7.32212 9.59161 6.96912 10.3772 7.21989 11.1137C7.46178 11.8241 7.73936 12.5455 8.06395 13.2652C8.38855 13.985 8.74553 14.6706 9.11784 15.3222C9.50383 15.9977 10.3263 16.2531 11.0134 15.9433L11.4093 15.7648C12.6817 15.1909 14.1936 15.7909 14.7862 17.1048L16.0737 19.9598C16.6663 21.2737 16.1151 22.8041 14.8427 23.3779L12.9995 24.2092Z" stroke="white" stroke-width="1.5"/>
</svg>
