<svg width="30" height="30" viewBox="0 0 30 30" fill="none" xmlns="http://www.w3.org/2000/svg">
<path d="M27.8941 13.4977C29.3686 14.2433 29.3686 16.1655 27.8941 16.9111L18.5038 21.6593C16.326 22.7605 13.674 22.7605 11.4962 21.6593L2.10588 16.9111C0.63137 16.1655 0.631374 14.2433 2.10589 13.4977M20.8514 3.01295L18.5038 1.8259C16.326 0.724701 13.674 0.724699 11.4962 1.8259L2.10589 6.57408C0.631375 7.31967 0.63137 9.24187 2.10588 9.98745L11.4962 14.7356C13.674 15.8368 16.326 15.8368 18.5038 14.7356L27.8941 9.98745C29.3686 9.24187 29.3686 7.31967 27.8941 6.57409L25.5465 5.38704M28.351 20.6C29.1306 21.4918 28.9267 22.9038 27.7066 23.5207L18.5038 28.1741C16.326 29.2753 13.674 29.2753 11.4962 28.1741L2.42769 23.5886C1.17164 22.9535 0.997144 21.4837 1.84488 20.6" stroke="#0044AB" stroke-width="1.5" stroke-linecap="round"/>
</svg>
