<svg width="30" height="31" viewBox="0 0 30 31" fill="none" xmlns="http://www.w3.org/2000/svg">
<path d="M27.8941 14.1559C29.3686 14.9015 29.3686 16.8237 27.8941 17.5693L18.5038 22.3175C16.326 23.4187 13.674 23.4187 11.4962 22.3175L2.10588 17.5693C0.63137 16.8237 0.631374 14.9015 2.10589 14.1559M20.8514 3.67115L18.5038 2.48411C16.326 1.3829 13.674 1.3829 11.4962 2.4841L2.10589 7.23229C0.631375 7.97787 0.63137 9.90007 2.10588 10.6457L11.4962 15.3938C13.674 16.495 16.326 16.495 18.5038 15.3938L27.8941 10.6457C29.3686 9.90007 29.3686 7.97787 27.8941 7.23229L25.5465 6.04524M28.351 21.2582C29.1306 22.15 28.9267 23.562 27.7066 24.179L18.5038 28.8323C16.326 29.9335 13.674 29.9335 11.4962 28.8323L2.42769 24.2468C1.17164 23.6117 0.997144 22.1419 1.84488 21.2582" stroke="white" stroke-width="1.5" stroke-linecap="round"/>
</svg>
