<svg width="25" height="30" viewBox="0 0 25 30" fill="none" xmlns="http://www.w3.org/2000/svg">
<path d="M5.8001 7.4C5.8001 10.9346 8.66547 13.8 12.2001 13.8C15.7347 13.8 18.6001 10.9346 18.6001 7.4C18.6001 3.86538 15.7347 1 12.2001 1" stroke="#0044AB" stroke-width="1.5" stroke-linecap="round"/>
<path d="M1 23.2955C1 21.9189 1.86537 20.6909 3.16175 20.2279V20.2279C9.00647 18.1405 15.3935 18.1405 21.2383 20.2279V20.2279C22.5346 20.6909 23.4 21.9189 23.4 23.2955V26.694C23.4 27.9111 22.322 28.846 21.1172 28.6739L16.0184 27.9455C13.4856 27.5837 10.9144 27.5837 8.38162 27.9455L3.28284 28.6739C2.07797 28.846 1 27.9111 1 26.694V23.2955Z" stroke="#0044AB" stroke-width="1.5"/>
</svg>
