<svg width="25" height="31" viewBox="0 0 25 31" fill="none" xmlns="http://www.w3.org/2000/svg">
<path d="M5.8001 8.0582C5.8001 11.5928 8.66547 14.4582 12.2001 14.4582C15.7347 14.4582 18.6001 11.5928 18.6001 8.0582C18.6001 4.52358 15.7347 1.6582 12.2001 1.6582" stroke="white" stroke-width="1.5" stroke-linecap="round"/>
<path d="M1 23.9537C1 22.5771 1.86537 21.3491 3.16175 20.8862V20.8862C9.00647 18.7988 15.3935 18.7988 21.2383 20.8862V20.8862C22.5346 21.3491 23.4 22.5771 23.4 23.9537V27.3522C23.4 28.5693 22.322 29.5042 21.1172 29.3321L16.0184 28.6037C13.4856 28.2419 10.9144 28.2419 8.38162 28.6037L3.28284 29.3321C2.07797 29.5042 1 28.5693 1 27.3522V23.9537Z" stroke="white" stroke-width="1.5"/>
</svg>
